<svg width="627" height="627" viewBox="0 0 627 627" fill="none" xmlns="http://www.w3.org/2000/svg">
    <circle cx="313.5" cy="313.5" r="313.5" fill="#7B1FA2"/>
    <circle cx="432.438" cy="313.5" r="170.5" fill="black"/>
    <path d="M153.719 407V225.182H281.56V264.955H203.08V296.205H273.747V335.977H203.08V407H153.719ZM469.459 293.364H419.388C419.033 289.221 418.086 285.462 416.547 282.089C415.068 278.715 412.996 275.815 410.333 273.388C407.729 270.903 404.562 269.009 400.833 267.707C397.105 266.345 392.873 265.665 388.138 265.665C379.852 265.665 372.839 267.677 367.098 271.702C361.416 275.726 357.095 281.497 354.136 289.013C351.236 296.53 349.786 305.556 349.786 316.091C349.786 327.218 351.266 336.54 354.225 344.056C357.243 351.513 361.593 357.136 367.275 360.924C372.957 364.653 379.793 366.517 387.783 366.517C392.34 366.517 396.424 365.955 400.034 364.83C403.645 363.647 406.782 361.96 409.445 359.77C412.108 357.58 414.269 354.946 415.926 351.869C417.642 348.732 418.796 345.21 419.388 341.304L469.459 341.659C468.867 349.353 466.707 357.195 462.978 365.185C459.25 373.116 453.953 380.455 447.087 387.202C440.281 393.89 431.847 399.276 421.785 403.36C411.724 407.444 400.034 409.486 386.718 409.486C370.027 409.486 355.053 405.905 341.796 398.744C328.597 391.582 318.151 381.047 310.457 367.138C302.822 353.23 299.005 336.214 299.005 316.091C299.005 295.849 302.911 278.804 310.723 264.955C318.536 251.046 329.071 240.54 342.328 233.438C355.586 226.277 370.382 222.696 386.718 222.696C398.2 222.696 408.764 224.264 418.412 227.401C428.059 230.538 436.522 235.125 443.802 241.162C451.082 247.14 456.941 254.508 461.38 263.268C465.819 272.027 468.512 282.059 469.459 293.364Z" fill="white"/>
    </svg>
    