<svg width="912" height="912" viewBox="0 0 912 912" fill="none" xmlns="http://www.w3.org/2000/svg">
    <circle cx="456" cy="456" r="456" fill="#7B1FA2"/>
    <circle cx="629" cy="456" r="248" fill="black"/>
    <path d="M150.094 626V298.727H380.207V370.318H238.943V426.568H366.145V498.159H238.943V626H150.094ZM718.427 421.455H628.299C627.659 413.997 625.955 407.232 623.185 401.16C620.522 395.087 616.793 389.867 611.999 385.499C607.311 381.025 601.612 377.616 594.9 375.272C588.189 372.822 580.571 371.597 572.049 371.597C557.134 371.597 544.51 375.219 534.176 382.463C523.949 389.707 516.172 400.094 510.845 413.624C505.625 427.154 503.015 443.401 503.015 462.364C503.015 482.392 505.678 499.171 511.005 512.701C516.438 526.124 524.268 536.245 534.495 543.063C544.723 549.775 557.027 553.131 571.409 553.131C579.613 553.131 586.963 552.119 593.462 550.094C599.961 547.964 605.607 544.928 610.401 540.986C615.195 537.044 619.083 532.303 622.066 526.763C625.156 521.117 627.233 514.778 628.299 507.747L718.427 508.386C717.361 522.236 713.473 536.352 706.761 550.734C700.049 565.009 690.515 578.219 678.157 590.364C665.905 602.403 650.724 612.097 632.613 619.448C614.502 626.799 593.462 630.474 569.492 630.474C539.449 630.474 512.496 624.029 488.632 611.138C464.875 598.248 446.072 579.285 432.223 554.249C418.48 529.214 411.608 498.585 411.608 462.364C411.608 425.929 418.64 395.247 432.702 370.318C446.765 345.283 465.728 326.373 489.591 313.589C513.455 300.698 540.088 294.253 569.492 294.253C590.159 294.253 609.176 297.076 626.541 302.722C643.906 308.369 659.14 316.625 672.244 327.491C685.348 338.251 695.895 351.515 703.885 367.282C711.875 383.049 716.722 401.107 718.427 421.455Z" fill="white"/>
    </svg>
    