<svg width="1402" height="2785" viewBox="0 0 1402 2785" fill="none" xmlns="http://www.w3.org/2000/svg">
    <rect width="1402" height="2785" fill="white"/>
    <circle cx="701" cy="1330" r="456" fill="#7B1FA2"/>
    <circle cx="874" cy="1330" r="248" fill="black"/>
    <path d="M395.094 1500V1172.73H625.207V1244.32H483.943V1300.57H611.145V1372.16H483.943V1500H395.094ZM963.427 1295.45H873.299C872.659 1288 870.955 1281.23 868.185 1275.16C865.522 1269.09 861.793 1263.87 856.999 1259.5C852.311 1255.02 846.612 1251.62 839.9 1249.27C833.189 1246.82 825.571 1245.6 817.049 1245.6C802.134 1245.6 789.51 1249.22 779.176 1256.46C768.949 1263.71 761.172 1274.09 755.845 1287.62C750.625 1301.15 748.015 1317.4 748.015 1336.36C748.015 1356.39 750.678 1373.17 756.005 1386.7C761.438 1400.12 769.268 1410.25 779.495 1417.06C789.723 1423.77 802.027 1427.13 816.409 1427.13C824.613 1427.13 831.963 1426.12 838.462 1424.09C844.961 1421.96 850.607 1418.93 855.401 1414.99C860.195 1411.04 864.083 1406.3 867.066 1400.76C870.156 1395.12 872.233 1388.78 873.299 1381.75L963.427 1382.39C962.361 1396.24 958.473 1410.35 951.761 1424.73C945.049 1439.01 935.515 1452.22 923.157 1464.36C910.905 1476.4 895.724 1486.1 877.613 1493.45C859.502 1500.8 838.462 1504.47 814.492 1504.47C784.449 1504.47 757.496 1498.03 733.632 1485.14C709.875 1472.25 691.072 1453.28 677.223 1428.25C663.48 1403.21 656.608 1372.59 656.608 1336.36C656.608 1299.93 663.64 1269.25 677.702 1244.32C691.765 1219.28 710.728 1200.37 734.591 1187.59C758.455 1174.7 785.088 1168.25 814.492 1168.25C835.159 1168.25 854.176 1171.08 871.541 1176.72C888.906 1182.37 904.14 1190.62 917.244 1201.49C930.348 1212.25 940.895 1225.51 948.885 1241.28C956.875 1257.05 961.722 1275.11 963.427 1295.45Z" fill="white"/>
    </svg>
    